PathFileType	4	(X/Y/Z)	C:/Users/opensim2020/Desktop/walking_exp_matlab/subject02_walking06_straight_04.trc	
DataRate	CameraRate	NumFrames	NumMarkers	Units	OrigDataRate	OrigDataStartFrame	OrigNumFrames	
100.00	100.00	8	41	mm	100.00	2790	216	
Frame#	Time	LFHD			RFHD			LBHD			RBHD			C7			T10			CLAV			STRN			RBAK			LSHO			LUPA			LELB			LFRM			LWRA			LWRB			LFIN			RSHO			RUPA			RELB			RFRM			RWRA			RWRB			RFIN			LASI			RASI			LPSI			RPSI			LTHI			LKNE			LTIB			LANK			LHEE			LTOE			RTHI			RKNE			RTIB			RANK			RHEE			RTOE			*39			*40			
		X1	Y1	Z1	X2	Y2	Z2	X3	Y3	Z3	X4	Y4	Z4	X5	Y5	Z5	X6	Y6	Z6	X7	Y7	Z7	X8	Y8	Z8	X9	Y9	Z9	X10	Y10	Z10	X11	Y11	Z11	X12	Y12	Z12	X13	Y13	Z13	X14	Y14	Z14	X15	Y15	Z15	X16	Y16	Z16	X17	Y17	Z17	X18	Y18	Z18	X19	Y19	Z19	X20	Y20	Z20	X21	Y21	Z21	X22	Y22	Z22	X23	Y23	Z23	X24	Y24	Z24	X25	Y25	Z25	X26	Y26	Z26	X27	Y27	Z27	X28	Y28	Z28	X29	Y29	Z29	X30	Y30	Z30	X31	Y31	Z31	X32	Y32	Z32	X33	Y33	Z33	X34	Y34	Z34	X35	Y35	Z35	X36	Y36	Z36	X37	Y37	Z37	X38	Y38	Z38	X39	Y39	Z39	X40	Y40	Z40	X41	Y41	Z41	

136	1.350	-1022.45380	-592.47540	1732.95801	-1163.96655	-586.55145	1708.60742	-1006.99963	-459.66599	1664.82520	-1147.15076	-440.74136	1639.41064	-1074.86743	-396.93057	1517.41455	-1085.71387	-355.05038	1237.52771	-1061.17432	-538.56299	1454.76880	-1066.02795	-599.24408	1286.36108	-1139.72876	-347.61688	1337.45044	-892.96472	-466.09564	1496.54517	-809.66632	-475.56747	1297.30408	-795.90088	-496.74646	1156.12366	-785.12762	-541.94257	1030.58789	-815.04272	-633.38794	928.59546	-785.48077	-586.80939	915.97485	-779.75159	-624.78705	862.44330	-1259.92883	-476.23453	1482.93494	-1342.61096	-444.50870	1292.24207	-1361.64441	-456.86356	1147.09937	-1384.45313	-483.28250	1030.83850	-1373.89246	-531.54541	903.33112	-1401.28247	-482.31244	901.56091	-1408.95215	-517.84546	838.08600	-934.85101	-579.00256	977.06641	-1185.73682	-615.53687	978.11987	-1042.00659	-381.99603	1020.58264	-1157.66968	-392.46289	1026.95532	-873.86743	-507.69080	665.55072	-885.19550	-487.95062	481.99152	-910.58496	-336.92673	376.22089	-950.33588	-201.87938	203.93332	-1014.37329	-178.78766	195.25383	-891.33447	-266.64453	73.90942	-1258.15051	-586.53503	672.80286	-1208.44934	-602.75763	464.35699	-1212.38647	-570.57410	277.44244	-1168.80176	-552.09882	87.37850	-1113.11279	-515.51514	36.52668	-1178.52832	-704.89722	33.81078	-1111.05847	-490.25104	1799.03992			 
137	1.360	-1023.54633	-601.87158	1734.26831	-1164.91052	-596.11871	1709.88940	-1008.04639	-468.94980	1666.20154	-1148.23340	-450.30576	1640.91760	-1076.15112	-406.13947	1518.84924	-1087.78503	-364.06754	1239.21423	-1062.12732	-547.83838	1456.01416	-1066.93005	-608.14539	1287.47278	-1142.44678	-356.78705	1339.65820	-894.07202	-474.78195	1497.54797	-811.60242	-482.53702	1297.82068	-798.28607	-500.50964	1156.44678	-786.40045	-540.87756	1029.70361	-814.79156	-628.13287	923.26855	-785.36322	-581.29077	913.47894	-779.63770	-615.96851	857.47095	-1261.17078	-486.88464	1484.61267	-1344.46472	-456.43076	1293.92285	-1363.87646	-469.68112	1148.86389	-1386.52368	-497.97235	1032.74426	-1375.15759	-548.60480	906.34302	-1402.59534	-499.45706	903.44403	-1410.26331	-536.42737	841.08722	-935.06781	-586.90942	978.85553	-1186.94727	-623.92780	978.72107	-1044.29309	-390.40466	1022.11676	-1159.60730	-400.95880	1028.43774	-874.29034	-522.18829	667.45734	-885.75812	-506.17767	483.73798	-912.73932	-356.59564	376.78644	-952.11041	-223.81781	202.41743	-1015.88000	-200.53551	192.60344	-891.56598	-291.66565	75.21898	-1259.13184	-591.21619	672.87756	-1209.26611	-604.45343	464.20074	-1212.81287	-570.67645	277.50928	-1168.75146	-552.05518	87.39458	-1113.06055	-515.55133	36.61646	-1178.61572	-704.88489	33.79238	-1112.21716	-499.88730	1800.60303			 
138	1.370	-1023.95117	-610.94458	1735.70227	-1165.56763	-605.54114	1711.39685	-1009.07391	-478.08777	1667.54199	-1149.30249	-459.71555	1642.30920	-1077.71753	-415.48358	1520.53442	-1089.90833	-372.93991	1240.87500	-1062.97998	-557.06555	1457.16553	-1067.80579	-617.04901	1288.51404	-1144.59814	-366.10623	1341.62268	-895.15588	-483.40906	1498.53418	-813.28992	-488.80820	1298.47571	-800.72351	-504.36212	1156.94678	-787.53784	-539.48572	1029.17444	-814.52704	-622.67987	918.59753	-785.19263	-574.79791	911.02667	-779.57861	-607.02466	853.19037	-1262.26050	-497.39908	1486.46863	-1346.40454	-468.39423	1295.69775	-1365.35449	-483.02396	1150.21790	-1387.93018	-513.10162	1034.82959	-1376.24268	-565.74481	909.51587	-1403.73804	-516.77209	905.46594	-1411.45972	-555.15918	844.09601	-935.36627	-594.96899	980.55383	-1188.26953	-632.13013	979.39984	-1046.33411	-398.76804	1023.75275	-1161.38135	-409.36917	1029.82031	-874.80872	-536.72961	669.41681	-886.41278	-523.93176	485.37244	-914.72192	-376.16684	376.79544	-953.60724	-246.30763	199.81061	-1017.17755	-222.83554	189.02090	-892.44806	-318.00110	75.31059	-1260.01831	-595.49396	672.87939	-1210.12854	-605.98383	464.04333	-1213.22705	-570.64691	277.66815	-1168.43811	-551.82819	87.58463	-1112.74707	-515.54980	36.71225	-1178.74890	-705.00977	33.85277	-1112.90271	-508.99139	1801.76221	-3356.88770	2845.82104	1033.90491 
139	1.380	-1024.55103	-620.49536	1737.24622	-1166.12561	-615.08679	1712.68982	-1009.85107	-487.43661	1668.94141	-1150.22827	-469.17130	1643.65479	-1078.86267	-424.87598	1521.85242	-1091.93311	-381.85718	1242.49182	-1063.81567	-566.29437	1458.23132	-1068.72729	-625.72668	1289.32776	-1146.25623	-375.47974	1343.46301	-896.22479	-491.96014	1499.47644	-814.96143	-494.71860	1298.86890	-802.44196	-508.18338	1157.56519	-788.35516	-539.53217	1028.88367	-814.32300	-617.04413	914.54987	-784.90753	-569.18597	909.57068	-779.36487	-597.81549	849.97784	-1263.21802	-507.73541	1488.42480	-1348.26624	-480.46158	1297.52271	-1367.70349	-496.04611	1152.15955	-1389.38855	-528.32111	1037.09387	-1377.12769	-582.94189	912.77704	-1404.88196	-534.24365	907.69110	-1412.37659	-574.06549	847.29248	-936.00446	-603.12610	982.25519	-1189.70630	-640.38300	980.35864	-1048.07874	-407.06482	1025.35144	-1162.92456	-417.61890	1031.06567	-875.16589	-550.86871	671.59265	-887.04480	-541.20648	487.01141	-916.33270	-395.64737	376.15338	-954.88928	-269.58859	196.09698	-1018.25427	-245.79347	184.45424	-893.72467	-345.60852	74.53777	-1260.88989	-599.26532	672.82819	-1210.84656	-607.49438	463.88571	-1213.59766	-570.73602	277.83847	-1168.36450	-551.87445	87.66619	-1112.64685	-515.51294	36.78383	-1178.80151	-704.98444	33.80016	-1113.22327	-518.34375	1802.87378			 
140	1.390	-1024.98096	-629.88702	1738.16309	-1166.47461	-624.64105	1713.90552	-1010.58020	-496.53897	1669.91541	-1150.91614	-478.68246	1644.83130	-1080.32800	-434.33542	1523.33972	-1093.90015	-390.59964	1244.01550	-1064.52490	-575.45435	1459.19885	-1069.70520	-634.44775	1290.23486	-1148.83521	-384.43362	1345.49146	-897.25653	-500.41647	1500.43372	-816.63214	-501.08002	1299.26196	-804.23682	-511.47244	1158.06873	-789.34839	-537.38593	1029.09387	-814.21844	-611.33191	911.05994	-784.61261	-563.34149	908.61713	-779.15088	-588.93518	847.33997	-1264.09680	-518.16376	1490.20728	-1350.05444	-492.53891	1299.39392	-1369.69470	-509.29095	1154.08008	-1390.87244	-543.57434	1039.34106	-1377.77234	-600.19116	916.23102	-1405.90771	-551.84595	910.07935	-1413.07544	-593.01361	850.58118	-937.01648	-611.54926	984.01154	-1191.32788	-647.70789	981.07013	-1049.45007	-415.35553	1026.82813	-1164.22778	-425.75562	1032.14001	-875.69177	-564.75861	673.85193	-887.74933	-558.09998	488.64633	-917.47754	-415.05908	374.77975	-955.99188	-293.49689	191.36566	-1019.21381	-269.55472	178.79248	-895.06256	-373.97699	73.06251	-1261.27441	-601.98853	672.35651	-1211.42297	-609.10699	463.79822	-1213.99243	-571.17932	277.95215	-1168.28394	-551.91180	87.59291	-1112.61841	-515.45959	36.98767	-1178.83545	-704.85480	33.73097	-1113.99854	-527.93213	1804.17163	-3360.27979	2845.20190	1033.96619 
141	1.400	-1025.34277	-638.88666	1738.82422	-1166.72705	-634.24927	1715.04810	-1011.33917	-505.58212	1671.11621	-1151.63269	-488.27365	1646.06616	-1081.37695	-443.63171	1524.61145	-1095.86511	-399.26929	1245.50696	-1065.20544	-584.54120	1460.14087	-1070.64978	-643.57300	1291.29211	-1150.95374	-393.34570	1347.31775	-898.25677	-508.91534	1501.20129	-818.02631	-507.21313	1299.98730	-805.97589	-514.78070	1158.64661	-789.99780	-536.14996	1029.47034	-814.10126	-605.61340	908.05737	-784.26843	-557.54718	908.23535	-778.93933	-580.15619	845.37756	-1264.79602	-528.23590	1492.14136	-1351.78601	-504.58389	1301.30969	-1371.66321	-522.59937	1156.02368	-1392.20471	-558.96295	1041.83057	-1378.27124	-617.59937	919.81787	-1406.84741	-569.62878	912.60797	-1413.63123	-612.20319	853.99786	-938.34686	-620.23828	985.69836	-1193.03052	-655.29413	981.98730	-1050.35059	-423.71735	1028.11902	-1165.25647	-433.70517	1033.05945	-876.19574	-578.23431	676.00647	-888.62109	-574.65662	490.24448	-918.25391	-434.38602	372.68518	-957.00989	-318.11636	185.75162	-1020.01465	-293.98352	172.11465	-896.48694	-403.21170	70.74434	-1261.93958	-606.26331	672.69238	-1211.95618	-610.82849	463.63623	-1214.25781	-571.99207	278.02948	-1168.44141	-552.15216	87.62135	-1112.50024	-515.52466	37.05083	-1178.94104	-704.98334	33.77430	-1114.12354	-537.34393	1805.21277	-3360.24829	2845.12598	1033.93298 
142	1.410	-1025.43750	-648.18384	1739.64526	-1166.80310	-643.89539	1716.07727	-1011.74609	-514.80444	1672.13647	-1152.17505	-497.87378	1647.23743	-1082.28918	-452.72971	1525.77271	-1097.58508	-407.91724	1246.86938	-1065.80396	-593.56262	1460.98938	-1071.57874	-651.65918	1291.77380	-1152.85498	-402.34250	1349.02002	-899.16638	-517.34442	1501.83899	-819.27771	-512.76569	1300.53589	-807.50916	-517.88593	1159.38623	-790.82648	-534.93280	1029.85376	-814.09692	-600.14801	905.75525	-783.86725	-552.00165	907.95740	-778.73169	-571.91736	844.21802	-1265.49609	-538.31970	1493.95264	-1353.34717	-516.58057	1303.20422	-1373.48877	-536.01221	1157.98486	-1393.29614	-574.60577	1044.40588	-1378.54211	-635.01855	923.39667	-1407.68945	-587.39874	915.25287	-1414.04846	-631.20239	857.73383	-940.09998	-629.48999	987.79468	-1194.88403	-662.66754	982.83795	-1050.95740	-432.03256	1029.38782	-1166.07373	-441.55685	1033.87219	-876.76233	-591.57306	678.46423	-889.55872	-590.93988	491.75266	-918.75885	-453.84424	369.93179	-957.91248	-343.35959	179.36482	-1021.06738	-319.51419	164.73987	-897.50793	-433.01730	68.05534	-1262.32996	-609.63171	672.70074	-1212.41638	-612.52661	463.46341	-1214.44885	-573.03162	278.06339	-1168.28003	-552.13458	87.76053	-1112.36267	-515.44080	37.09438	-1178.99670	-704.81982	33.66904	-1114.77063	-546.96918	1806.46179	-3356.84521	2845.83472	1033.70142 
143	1.420	-1025.42310	-657.55585	1740.37195	-1166.84998	-653.66089	1716.88013	-1012.46008	-524.54779	1672.46411	-1152.79126	-507.20175	1648.33398	-1083.40088	-462.10693	1527.00586	-1099.19189	-416.52136	1248.16248	-1066.33289	-602.57434	1461.76855	-1072.56445	-660.33429	1292.54150	-1154.47083	-411.38147	1350.31689	-899.95587	-525.77551	1502.29480	-820.38403	-518.29803	1300.91370	-808.81146	-520.19470	1160.01563	-791.41394	-533.69720	1030.42615	-814.16907	-594.43243	903.67322	-783.64166	-546.81793	908.22009	-778.40918	-564.48535	843.44232	-1266.10205	-548.15076	1495.67163	-1354.87732	-528.55530	1305.10168	-1374.98633	-549.54559	1159.81909	-1394.59277	-590.11847	1046.83789	-1378.55676	-652.22644	927.00720	-1408.43555	-605.26990	917.97980	-1414.16858	-650.35309	861.26135	-942.28516	-638.48206	989.73096	-1196.88538	-669.92816	983.52234	-1051.22009	-440.29816	1030.58154	-1166.50745	-449.36368	1034.52771	-877.31250	-603.99115	680.52100	-890.57263	-606.70044	493.14297	-919.08521	-473.37561	366.56863	-958.57312	-369.36929	172.32648	-1021.61884	-345.53360	157.25545	-898.18939	-463.36105	65.17001	-1263.03748	-613.26593	672.58044	-1212.77515	-614.21564	463.29288	-1214.57910	-574.07861	278.11261	-1168.33130	-552.31757	87.84152	-1112.56604	-515.53040	37.15265	-1179.11145	-704.78345	33.64738	-1114.88379	-556.66888	1807.49133	-3360.12427	2845.13208	1034.01953 
